<svg width="154" height="32" viewBox="0 0 154 32" fill="none" xmlns="http://www.w3.org/2000/svg">
<g clip-path="url(#clip0_26101_250195)">
<path fill-rule="evenodd" clip-rule="evenodd" d="M15.3962 3.17957C7.73891 3.17957 1.53147 9.2742 1.53147 16.7924C1.53147 24.3105 7.73891 30.4051 15.3962 30.4051C15.8169 30.4051 16.158 30.74 16.158 31.1531C16.158 31.5661 15.8169 31.901 15.3962 31.901C6.8974 31.901 0.0078125 25.1366 0.0078125 16.7924C0.0078125 8.448 6.8974 1.68359 15.3962 1.68359C17.1873 1.68359 18.9086 1.98436 20.5095 2.53792C20.9062 2.67516 21.1147 3.10226 20.975 3.4919C20.8351 3.88156 20.4001 4.08617 20.0033 3.94895C18.5629 3.45084 17.0126 3.17957 15.3962 3.17957ZM15.394 7.96952C10.4294 7.96952 6.40478 11.921 6.40478 16.7953C6.40478 21.6697 10.4294 25.6212 15.394 25.6212C15.8147 25.6212 16.1558 25.9561 16.1558 26.3691C16.1558 26.7822 15.8147 27.1171 15.394 27.1171C9.58787 27.1171 4.88112 22.496 4.88112 16.7953C4.88112 11.0948 9.58787 6.47354 15.394 6.47354C17.3007 6.47354 19.091 6.97264 20.6345 7.84552C20.9989 8.05172 21.1243 8.50908 20.9143 8.86702C20.7043 9.22499 20.2385 9.34802 19.8738 9.14181C18.5557 8.39624 17.0267 7.96952 15.394 7.96952ZM21.0235 17.1113C21.0354 16.0717 20.5142 15.0157 19.4612 14.4188L16.064 12.4931C13.9806 11.3121 11.3764 12.7884 11.3764 15.1503V19.0017C11.3764 21.3637 13.9806 22.8399 16.064 21.659C16.4283 21.4524 16.5532 20.9949 16.3429 20.6372C16.1324 20.2795 15.6665 20.1569 15.3022 20.3634C14.2345 20.9686 12.9 20.2121 12.9 19.0017V15.1503C12.9 13.94 14.2345 13.1835 15.3022 13.7887L18.6993 15.7145C19.2397 16.0207 19.5061 16.5533 19.4999 17.0944C19.4951 17.5075 19.8323 17.8462 20.253 17.8509C20.6738 17.8555 21.0187 17.5244 21.0235 17.1113Z" fill="url(#paint0_linear_26101_250195)"/>
<path fill-rule="evenodd" clip-rule="evenodd" d="M20.2715 0.117188C20.6922 0.117188 21.0333 0.452073 21.0333 0.865176V17.0767V17.0777C21.0318 18.1045 20.5102 19.1415 19.4707 19.7306L16.0737 21.6563C13.9902 22.8374 11.386 21.3612 11.386 18.9992C11.386 18.5861 11.7271 18.2512 12.1478 18.2512C12.5686 18.2512 12.9096 18.5861 12.9096 18.9992C12.9096 20.2096 14.2441 20.9661 15.3117 20.3609L18.7089 18.4352C19.2425 18.1326 19.5088 17.6099 19.5097 17.0761V17.0757V0.865176C19.5097 0.452074 19.8506 0.117188 20.2715 0.117188ZM25.1471 0.904677C25.5678 0.904677 25.9089 1.23956 25.9089 1.65267V16.7941C25.9089 22.4948 21.2021 27.1159 15.3961 27.1159C9.59 27.1159 4.88323 22.4948 4.88323 16.7941C4.88323 16.381 5.22432 16.0461 5.64507 16.0461C6.06581 16.0461 6.4069 16.381 6.4069 16.7941C6.4069 21.6685 10.4315 25.62 15.3961 25.62C20.3606 25.62 24.3853 21.6685 24.3853 16.7941V1.65267C24.3853 1.23956 24.7264 0.904677 25.1471 0.904677ZM30.7845 2.4334C30.7845 2.02029 30.4434 1.68541 30.0227 1.68541C29.602 1.68541 29.2609 2.02029 29.2609 2.4334V16.7941C29.2609 24.3122 23.0534 30.4068 15.3962 30.4068C7.73891 30.4068 1.53147 24.3122 1.53147 16.7941C1.53147 16.381 1.19039 16.0461 0.769644 16.0461C0.348896 16.0461 0.0078125 16.381 0.0078125 16.7941C0.0078125 25.1385 6.8974 31.9028 15.3962 31.9028C23.8949 31.9028 30.7845 25.1385 30.7845 16.7941V2.4334Z" fill="url(#paint1_angular_26101_250195)"/>
</g>
<g clip-path="url(#clip1_26101_250195)">
<path d="M38.7224 24.3384H45.356C51.2901 24.3384 54.4774 21.1657 54.4774 15.9086C54.4774 10.6053 51.2901 7.50195 45.3301 7.50195H38.7224V24.3384ZM44.8636 9.09992C49.3985 9.09992 51.4975 11.7864 51.4975 15.9086C51.4975 20.031 49.4244 22.7407 44.8898 22.7407H41.5728V9.09992H44.8636Z" fill="black"/>
<path d="M58.0818 24.3384H60.0253L62.0206 19.5677H70.5199L72.4635 24.3384H75.573L68.6025 7.50195H65.0782L58.0818 24.3384ZM62.6684 18.0163L66.322 9.26205L69.898 18.0163H62.6684Z" fill="black"/>
<path d="M93.3968 7.50195H91.4536L85.2604 22.5553L79.145 7.50195H76.113L83.006 24.3384H86.53L93.3968 7.50195Z" fill="black"/>
<path d="M98.3474 24.3384H101.198V7.50195H98.3474V24.3384Z" fill="black"/>
<path d="M124.061 7.50195H121.211L121.315 22.0922L111.364 7.50195H107.918V24.3384H110.768L110.664 9.74837L120.615 24.3384H124.061V7.50195Z" fill="black"/>
<path d="M145.246 18.9648V18.5942H142.266C142.266 21.1418 140.582 22.9713 137.602 22.9483C133.637 22.9483 132.134 19.3586 132.134 15.9078C132.134 12.5498 133.586 8.89065 137.602 8.89065C140.53 8.89065 142.215 10.7434 142.215 13.2444H145.194V12.8508C145.194 9.51595 141.878 7.26953 137.602 7.26953C131.979 7.26953 129.129 11.1371 129.129 15.9078C129.129 20.8407 131.953 24.5694 137.628 24.5694C141.904 24.5924 145.246 22.2996 145.246 18.9648Z" fill="black"/>
<path d="M150.582 24.3384H153.432V7.50195H150.582V24.3384Z" fill="black"/>
</g>
<defs>
<linearGradient id="paint0_linear_26101_250195" x1="-5.37461" y1="7.4201" x2="20.6134" y2="5.65954" gradientUnits="userSpaceOnUse">
<stop stop-color="#FD9988"/>
<stop offset="0.105262" stop-color="#D38CB7"/>
<stop offset="0.16694" stop-color="#9B79D2"/>
<stop offset="0.38572" stop-color="#9979D3"/>
<stop offset="0.652275" stop-color="#AD80CA"/>
<stop offset="0.824115" stop-color="#6B639F"/>
<stop offset="1" stop-color="#36188B"/>
</linearGradient>
<radialGradient id="paint1_angular_26101_250195" cx="0" cy="0" r="1" gradientUnits="userSpaceOnUse" gradientTransform="translate(14.2549 16.833) rotate(-76.2116) scale(21.5133 21.1674)">
<stop offset="0.00210938" stop-color="#F4E3AF"/>
<stop offset="0.162542" stop-color="#FD9988"/>
<stop offset="0.460803" stop-color="#D38CB7"/>
<stop offset="0.843132" stop-color="#7F70DE"/>
</radialGradient>
<clipPath id="clip0_26101_250195">
<rect width="30.9333" height="32" fill="white"/>
</clipPath>
<clipPath id="clip1_26101_250195">
<rect width="114.75" height="18" fill="white" transform="translate(38.9333 7)"/>
</clipPath>
</defs>
</svg>
